<svg width="97" height="24" viewBox="0 0 97 24" fill="none" xmlns="http://www.w3.org/2000/svg">
<g clip-path="url(#clip0_416_2002)">
<mask id="mask0_416_2002" style="mask-type:luminance" maskUnits="userSpaceOnUse" x="0" y="0" width="97" height="24">
<path d="M96.4135 0H0V24H96.4135V0Z" fill="white"/>
</mask>
<g mask="url(#mask0_416_2002)">
<path d="M20.7264 7.98718C20.2347 7.97308 19.7452 8.06268 19.2902 8.25018C18.8351 8.43768 18.4244 8.71888 18.0849 9.07556C17.7309 9.45476 17.456 9.9008 17.2761 10.3876C17.0962 10.8744 17.0149 11.3923 17.0371 11.9109C17.0129 12.439 17.093 12.9667 17.2728 13.4638C17.4526 13.9609 17.7286 14.4176 18.0849 14.8076C18.4202 15.1701 18.8287 15.457 19.2831 15.6495C19.7376 15.8419 20.2277 15.9355 20.7208 15.9239C21.2082 15.9342 21.6922 15.8399 22.1401 15.6473C22.5881 15.4548 22.9897 15.1685 23.318 14.8076C23.9909 14.0122 24.3601 13.0036 24.3601 11.9611C24.3601 10.9187 23.9909 9.91004 23.318 9.11464C22.9875 8.75192 22.5832 8.46452 22.1323 8.27192C21.6813 8.07934 21.1943 7.98604 20.7042 7.99836L20.7264 7.98718ZM17.2322 5.29694V6.77602C17.7976 6.19938 18.467 5.73536 19.2051 5.40858C19.9221 5.10282 20.694 4.94706 21.4734 4.9509C22.3152 4.94274 23.149 5.11596 23.9184 5.45878C24.6876 5.8016 25.3741 6.30602 25.9316 6.93788C27.181 8.331 27.8388 10.1571 27.7651 12.0281C27.7935 12.9494 27.6402 13.8672 27.3141 14.7291C26.988 15.591 26.4955 16.3801 25.8649 17.0514C25.3001 17.6881 24.6063 18.197 23.83 18.5444C23.0535 18.8918 22.2122 19.0697 21.3617 19.0663C20.6209 19.0725 19.8861 18.9321 19.1995 18.6532C18.4599 18.3277 17.7857 17.87 17.2099 17.3025V23.6262H13.8661V5.28578L17.2322 5.29694Z" fill="#06A59E"/>
<path d="M42.3441 7.98706C41.8557 7.97564 41.3705 8.06938 40.9215 8.26198C40.4726 8.45456 40.0701 8.74148 39.7414 9.10334C39.0409 9.87088 38.6689 10.8828 38.7049 11.922C38.6657 12.978 39.0443 14.0069 39.7581 14.7852C40.0865 15.1458 40.4883 15.4319 40.9362 15.6244C41.384 15.8169 41.8678 15.9114 42.3552 15.9015C42.8483 15.913 43.3385 15.8195 43.7929 15.627C44.2473 15.4346 44.6558 15.1476 44.9911 14.7852C45.3476 14.3951 45.6234 13.9385 45.8032 13.4414C45.9831 12.9443 46.0632 12.4166 46.0389 11.8885C46.0612 11.3699 45.9799 10.852 45.8 10.3652C45.6201 9.87836 45.3452 9.43232 44.9911 9.0531C44.6497 8.69586 44.2372 8.41436 43.7802 8.22688C43.3232 8.0394 42.8321 7.9501 42.3383 7.96474L42.3441 7.98706ZM45.9275 5.26334H49.2712V18.6587H45.9275V17.241C45.3573 17.8077 44.6888 18.2654 43.9546 18.5917C43.2736 18.8698 42.5445 19.0102 41.809 19.0047C40.9664 19.0044 40.1332 18.8251 39.3646 18.4787C38.5962 18.1324 37.9098 17.6269 37.3506 16.9954C36.7214 16.3237 36.2306 15.5342 35.9063 14.6723C35.5822 13.8103 35.4311 12.8928 35.4613 11.9722C35.3878 10.1038 36.0434 8.28012 37.2892 6.88752C37.8463 6.25554 38.5331 5.75136 39.3025 5.40942C40.0719 5.06746 40.906 4.8958 41.7477 4.90614C42.5252 4.90226 43.2952 5.05804 44.0104 5.36382C44.7444 5.6887 45.4088 6.15308 45.9664 6.73124L45.9275 5.26334ZM50.503 5.26334H53.8467V6.63078C54.4721 6.08032 55.1791 5.63032 55.9421 5.29682C56.5509 5.04772 57.2019 4.91884 57.8593 4.9173C58.4944 4.90554 59.1252 5.02318 59.7132 5.26304C60.3015 5.50292 60.835 5.86 61.2812 6.31264C62.0725 7.09962 62.4627 8.26056 62.4627 9.8066V18.6754H59.1188V12.7871C59.1623 11.7163 59.0894 10.6439 58.9015 9.58892C58.7883 9.11304 58.5196 8.68868 58.1379 8.38334C57.7506 8.10018 57.2797 7.95482 56.8005 7.97032C56.1391 7.95634 55.4988 8.20286 55.017 8.65684C54.4907 9.169 54.1315 9.82854 53.9861 10.5489C53.8548 11.4524 53.8046 12.3658 53.8355 13.2782V18.6699H50.4918L50.503 5.26334ZM63.5215 -0.0222473H66.8654V10.7889L71.8031 5.26334H76.0052L70.2538 11.6875L76.7017 18.6531H72.5107L66.8543 12.4466V18.6754H63.5103L63.5215 -0.0222473ZM77.2423 -0.0222473H80.5862V18.6754H77.2423V-0.0222473ZM82.0296 5.26334H85.4625L88.9456 13.6857L90.573 17.6206L87.8366 23.587H84.3591L87.1457 17.6819L82.0296 5.26334ZM28.8628 5.26334H31.6772V6.89312C31.944 6.28214 32.3741 5.7568 32.9199 5.37498C33.4216 5.02988 34.0168 4.8468 34.6253 4.85032C35.1006 4.86264 35.5669 4.98086 35.9907 5.19636L34.9431 8.0987C34.644 7.9287 34.3107 7.82764 33.9677 7.80288C33.6818 7.82472 33.4077 7.92616 33.1761 8.0958C32.9447 8.26544 32.7654 8.4965 32.6582 8.76288C32.3015 9.41032 32.1007 10.6606 32.1007 12.5415L32.1843 13.1945V18.6531H28.8406L28.8628 5.26334Z" fill="#07242A"/>
<path fill-rule="evenodd" clipRule="evenodd" d="M92.1219 14.4448L96.3184 5.28577H88.3323L92.0272 8.08205L92.1219 14.4448Z" fill="#06A59E"/>
<path fill-rule="evenodd" clipRule="evenodd" d="M95.945 5.46973L92.2 7.91439L92.2836 13.4623L95.945 5.46973Z" fill="#07242A"/>
<path d="M8.79995 17.9888V16.0855C8.33649 16.7643 7.70976 17.3152 6.97758 17.6874C6.24118 18.0637 5.42455 18.2552 4.5979 18.2455C3.79923 18.2592 3.01048 18.067 2.30738 17.6874C1.65463 17.3401 1.1367 16.7841 0.836098 16.1078C0.498707 15.2178 0.34514 14.2684 0.384684 13.3171V5.27991H3.72851V11.1181C3.67844 12.2154 3.74007 13.3151 3.91242 14.3999C4.02392 14.7848 4.26141 15.121 4.58674 15.3544C4.95307 15.6011 5.38845 15.7243 5.82953 15.706C6.37905 15.7119 6.91671 15.5461 7.36768 15.2316C7.79454 14.95 8.12057 14.5394 8.29838 14.0595C8.5263 12.9324 8.61057 11.7808 8.54918 10.6325V5.27435H11.893V17.972L8.79995 17.9888Z" fill="#06A59E"/>
</g>
</g>
<defs>
<clipPath id="clip0_416_2002">
<rect width="96.5217" height="24" fill="white"/>
</clipPath>
</defs>
</svg>
