<svg width="152" height="40" viewBox="0 0 152 40" fill="none" xmlns="http://www.w3.org/2000/svg">
<path d="M35.9792 32.3491H12.3654C10.8756 32.3491 9.64648 31.1234 9.64648 29.6378V12.1819C9.64648 10.6963 10.8756 9.4707 12.3654 9.4707H35.9792C37.4691 9.4707 38.6982 10.6963 38.6982 12.1819V29.6378C38.6982 31.1234 37.4691 32.3491 35.9792 32.3491Z" fill="#0D9488"/>
<path d="M33.2236 28.2265H15.1222C14.0793 28.2265 13.2227 27.3723 13.2227 26.3324V15.4503C13.2227 14.4104 14.0793 13.5562 15.1222 13.5562H33.2236C34.2665 13.5562 35.1232 14.4104 35.1232 15.4503V26.3324C35.1232 27.3723 34.2665 28.2265 33.2236 28.2265Z" fill="white"/>
<path d="M22.9792 17.3444L27.4859 19.7585C28.3426 20.2413 28.3426 21.467 27.4487 21.9126L22.942 24.1039C22.1225 24.5124 21.1914 23.9182 21.1914 23.0268V18.4215C21.1914 17.4929 22.1598 16.9358 22.9792 17.3444Z" fill="#0D9488"/>
<path d="M6.59218 15.9704L1.1543 17.4932L5.959 6.20256L17.4679 1.00293L16.4996 6.20256L13.1474 12.4793L6.59218 15.9704Z" fill="#0D9488"/>
<path d="M9.98116 19.7588C9.98116 19.7588 11.9552 13.7792 19.6651 9.65668L16.4992 6.20264C16.4992 6.20264 8.56582 9.24813 6.5918 15.9705L9.98116 19.7588Z" fill="#096961"/>
<path d="M20.449 3.60274L19.6668 4.01129L17.3203 1.96858L17.4693 1.00293L20.449 3.60274Z" fill="#E6821F"/>
<path d="M23.5749 4.79103L22.383 5.42241L21.0794 7.27942L19.6641 4.01108L20.4462 3.60254L23.5749 4.79103Z" fill="#FDBA72"/>
<path d="M63.6539 16.4158V32.2375H60.5252C60.5252 32.1261 60.5625 31.1976 60.5997 29.4891C60.6369 28.3749 60.6742 27.2607 60.6742 26.2579C60.6742 23.7324 60.488 22.1354 60.0783 21.4297C57.3593 22.5811 54.1562 24.1038 50.5061 25.9608L49.0908 23.8438C49.6494 22.8039 49.9102 21.9868 49.9102 21.3554C49.9102 20.6126 49.7239 20.0927 49.3515 19.7956C49.0535 19.5727 48.4948 19.4242 47.6009 19.3127L46.707 17.1215C48.5693 14.9302 51.1393 13.8531 54.4169 13.8531C55.795 13.8531 56.9869 14.1131 57.9553 14.6702C58.8119 15.153 59.6686 15.933 60.5625 17.0843V13.7417H66.0748V16.4158H63.6539ZM54.5659 16.7872C53.523 16.7872 52.3684 17.1215 51.1393 17.8271C52.2567 18.4956 52.8153 19.387 52.8153 20.5384C52.8153 20.8355 52.7781 21.1697 52.6664 21.504L58.2532 18.9785C57.918 18.3471 57.3966 17.8271 56.6889 17.4186C56.0185 17.01 55.3108 16.7872 54.5659 16.7872Z" fill="#0D9488"/>
<path d="M63.3558 31.792L63.4303 32.1634H63.3558H60.7114C59.594 30.9007 58.5139 30.2693 57.471 30.2693C56.9123 30.2693 56.0929 30.455 54.9755 30.7892C53.8954 31.1235 53.076 31.3092 52.48 31.3092C49.6494 31.3092 47.3774 29.8607 45.6641 26.9267L47.3401 24.6982C48.9044 27.0381 50.6177 28.1894 52.48 28.1894C53.0015 28.1894 53.7836 28.0409 54.8265 27.7437C55.8694 27.4466 56.6516 27.2981 57.173 27.2981C58.5511 27.2981 59.8175 27.818 61.0093 28.8208L63.8028 31.792H63.3558Z" fill="#0D9488"/>
<path d="M70.2834 16.4158V32.3118H67.1548V16.4158H64.3613V13.7417H72.7789V16.4158H70.2834Z" fill="#0D9488"/>
<path d="M80.7499 33.5003C78.1054 33.5003 76.3549 33.0546 75.461 32.2004C73.5615 30.3062 72.5931 27.9664 72.5931 25.1809C72.5931 23.6581 73.0773 22.1354 74.0084 20.5012C74.6788 19.387 75.7217 18.05 77.2115 16.4158H71.1777V13.7417H82.7239V16.3044C80.9734 16.9358 79.3718 18.05 77.9565 19.6841C76.4294 21.3926 75.6845 23.101 75.6845 24.8095C75.6845 26.7408 76.0197 28.1521 76.6901 29.0806C77.5095 30.1948 78.8876 30.7891 80.8244 30.7891C81.2341 30.7891 81.979 30.4177 82.9846 29.712V32.906C82.2397 33.3146 81.4948 33.5003 80.7499 33.5003Z" fill="#0D9488"/>
<path d="M97.3236 16.4158V32.3118H94.493C91.7368 30.1948 87.4163 28.4864 81.4942 27.2236L80.6003 24.2895L87.677 21.4297C86.9321 20.5755 85.8892 19.907 84.4739 19.387C83.2075 18.9042 81.9411 18.6442 80.6375 18.6071V16.4158H78.8125V13.7417H99.2977V16.4158H97.3236ZM94.195 16.4158H85.703C88.5336 17.9385 90.3587 19.3499 91.1408 20.6126V23.361L86.6341 25.3294C89.651 26.4436 92.1465 27.595 94.2322 28.7835V16.4158H94.195ZM90.098 34.9488C88.6081 34.2802 87.1556 33.8346 85.703 33.5374L86.2989 30.8633C88.0122 31.0862 89.7255 31.7176 91.4016 32.7203L90.098 34.9488Z" fill="#0D9488"/>
<path d="M103.471 16.4158V32.3118H100.342V16.4158H97.5859V13.7417H106.003V16.4158H103.471Z" fill="#0D9488"/>
<path d="M126.636 11.6991C122.8 9.39637 119.597 8.24502 117.139 8.24502C115.127 8.24502 113.451 8.6907 112.185 9.54493C110.77 10.5106 110.025 11.8848 109.913 13.7418H112.222V16.4159H109.913V32.2376H106.71V16.4159H104.363V13.7418H106.71C106.821 11.0305 107.864 8.95068 109.913 7.46507C111.775 6.09089 114.196 5.42236 117.176 5.42236C119.038 5.42236 120.975 5.83091 122.949 6.64799C124.327 7.20509 126.152 8.20788 128.387 9.54493L126.636 11.6991Z" fill="#0D9488"/>
<path d="M116.096 17.4557C116.208 17.4557 116.394 17.4557 116.655 17.4557C117.846 17.4557 118.852 17.7528 119.709 18.3471C120.64 19.0156 121.124 19.8698 121.124 20.9469C121.124 22.2839 120.528 23.5839 119.374 24.8466C118.331 25.998 117.064 26.8151 115.612 27.2979L113.563 24.8466C114.494 24.5124 115.425 24.0295 116.357 23.3239C117.474 22.4696 118.033 21.6526 118.033 20.9098C118.033 20.2041 116.766 19.8327 114.271 19.8327C114.047 19.8327 113.712 19.907 113.265 20.0927L111.775 17.4557C112.222 17.0843 112.93 16.4529 113.824 15.5987C114.979 14.4845 116.357 13.8903 117.958 13.8903C120.267 13.8903 122.204 14.7816 123.769 16.6015V13.7417H129.318V16.4158H126.897V32.1261H123.769V21.244C123.769 21.0212 123.471 20.4641 122.912 19.6099C121.608 17.6414 120.007 16.6386 118.033 16.6386C117.399 16.6386 116.766 16.9358 116.096 17.4557Z" fill="#0D9488"/>
<path d="M141.163 16.4158V16.6386C143.025 16.7501 144.701 17.27 146.117 18.1985C147.793 19.2756 148.649 20.6498 148.649 22.2839C148.649 23.6953 148.091 24.8466 146.936 25.7008C145.893 26.5179 144.59 26.9265 143.063 26.9265C142.951 26.9265 142.616 26.8893 142.094 26.8151V23.9924C142.765 23.9924 143.286 23.9924 143.696 23.9924C144.999 23.9924 145.67 23.3982 145.67 22.2097C145.67 20.7612 144.18 19.8698 141.2 19.5356V32.3118H138.407C135.874 27.7436 132.82 25.4037 129.17 25.3294L128.276 22.2468C129.58 21.3926 131.218 20.4269 133.192 19.3499L138.072 16.7129V16.3787H127.568V13.7417H150.139V16.4158H141.163ZM138.034 19.9813C137.178 20.3527 135.613 21.4669 133.341 23.3239C134.273 23.881 135.837 25.3666 138.034 27.7064V19.9813Z" fill="#0D9488"/>
<path d="M31.2126 38.9973H17.9904C17.0965 38.9973 16.3516 38.2545 16.3516 37.3632C16.3516 36.4718 17.0965 35.729 17.9904 35.729H31.2126C32.1065 35.729 32.8514 36.4718 32.8514 37.3632C32.8514 38.2545 32.1065 38.9973 31.2126 38.9973Z" fill="#0D9488"/>
</svg>
